<svg width="179" height="167" viewBox="0 0 179 167" fill="none" xmlns="http://www.w3.org/2000/svg">
<rect x="101" width="15" height="145" fill="#201205"/>
<path d="M91 113H151.5L155 126H119H82L91 113Z" fill="#1F1406"/>
<path d="M123 77L147 106.5L178 145H159L114.5 86.5L123 77Z" fill="#1F1406"/>
<path d="M146.5 8.5C136.553 1.99152 122 0.833333 115.5 1V13C122 13.5 138 15.8 144 23C151.5 32 152 36.5 152 36.5C152 36.5 154 42 153 49.5C152 57 147.5 61.5 147.5 61.5C147.5 61.5 141 69 134.5 72C130.639 73.7819 120.667 75.6667 115.5 75.5C113.833 79 111.5 86.2 115.5 87C119.5 87.8 128.654 87.0786 136.5 84.5C141.644 82.8094 149 78.5 149 78.5C149 78.5 153.904 74.8778 156.5 72C160.202 67.8968 163 62.5 164 60C165.6 56 166.5 47 166.5 47C166.5 47 166.669 37.6455 165 32C161.688 20.7994 156.274 14.8951 146.5 8.5Z" fill="#201205"/>
<path d="M18.5114 34.7644L3 15V166H178V149.793H66.2386V82.9895L59.0795 91.2906L52.3182 82.9895V149.793H18.5114V34.7644Z" fill="#201205" stroke="#1E0F03"/>
<path d="M0 0H16.8571L38.1765 28.3293L59 56.1617V83L27.7647 39.2635L0 0Z" fill="#201205"/>
<path d="M0 0H16.8571L38.1765 28.3293L59 56.1617V83L27.7647 39.2635L0 0Z" fill="#201205"/>
<path d="M119 0H101.857L80.1765 27.988L59 55.485V82L90.7647 38.7904L119 0Z" fill="#201205"/>
<path d="M119 0H101.857L80.1765 27.988L59 55.485V82L90.7647 38.7904L119 0Z" fill="#201205"/>
</svg>
